<svg xmlns="http://www.w3.org/2000/svg" viewBox="0 0 480 320" width="480" height="320">
  <defs>
    <linearGradient id="svBg" x1="0%" y1="0%" x2="100%" y2="100%">
      <stop offset="0%" stop-color="#1b2e24" />
      <stop offset="45%" stop-color="#2a4536" />
      <stop offset="80%" stop-color="#182b20" />
      <stop offset="100%" stop-color="#0e1a13" />
    </linearGradient>
    <linearGradient id="svGold" x1="0%" y1="0%" x2="100%" y2="100%">
      <stop offset="0%" stop-color="#f3d79b" />
      <stop offset="50%" stop-color="#d4af37" />
      <stop offset="100%" stop-color="#916c27" />
    </linearGradient>
    <linearGradient id="svEmerald" x1="0%" y1="100%" x2="100%" y2="0%">
      <stop offset="0%" stop-color="#143d2b" />
      <stop offset="50%" stop-color="#2e6d50" />
      <stop offset="100%" stop-color="#5fa380" />
    </linearGradient>
    <radialGradient id="svMist" cx="60%" cy="40%" r="55%">
      <stop offset="0%" stop-color="#a3c4b0" stop-opacity="0.35" />
      <stop offset="60%" stop-color="#4a735c" stop-opacity="0.1" />
      <stop offset="100%" stop-color="#000000" stop-opacity="0" />
    </radialGradient>
    <filter id="canvasGrain">
      <feTurbulence type="fractalNoise" baseFrequency="0.65" numOctaves="3" result="noise" />
      <feColorMatrix type="matrix" values="0 0 0 0 0  0 0 0 0 0  0 0 0 0 0  0 0 0 0.05 0" />
      <feBlend mode="overlay" in2="SourceGraphic" />
    </filter>
  </defs>

  <!-- Fundo da tela em linho com tonalidade verde floresta e esmeralda -->
  <rect width="480" height="320" fill="url(#svBg)" />
  <rect width="480" height="320" fill="url(#svMist)" />

  <!-- Formas e texturas abstratas (Carlos Andrade - Serenidade em Verde) -->
  <g opacity="0.92">
    <!-- Camada orgânica inferior verde musgo -->
    <path d="M-20,240 Q90,160 210,220 T460,190 L500,340 L-20,340 Z" fill="#13241b" opacity="0.95" />
    
    <!-- Camada de espatuladas em verde sálvia e esmeralda -->
    <path d="M40,110 Q140,80 260,140 T480,90 L480,260 Q340,210 200,240 T20,270 Z" fill="url(#svEmerald)" opacity="0.85" />
    
    <!-- Pinceladas amplas de transição em tons terrosos suaves -->
    <path d="M90,70 Q220,130 350,80 T470,140" stroke="#8da896" stroke-width="26" stroke-linecap="round" fill="none" opacity="0.45" />
    <path d="M50,170 Q180,120 310,180 T440,150" stroke="#375745" stroke-width="32" stroke-linecap="round" fill="none" opacity="0.6" />

    <!-- Filetes e reflexos em folha de ouro (Dourado de prestígio) -->
    <path d="M120,145 Q210,110 320,135 T410,125" stroke="url(#svGold)" stroke-width="4.5" stroke-linecap="round" fill="none" opacity="0.95" />
    <circle cx="280" cy="130" r="18" fill="url(#svGold)" opacity="0.75" />
    <circle cx="295" cy="120" r="8" fill="#fff5d6" opacity="0.85" />
    <path d="M140,160 L180,150" stroke="url(#svGold)" stroke-width="2.5" stroke-linecap="round" opacity="0.8" />
    <path d="M330,140 L370,132" stroke="url(#svGold)" stroke-width="3" stroke-linecap="round" opacity="0.85" />

    <!-- Pinceladas em espatulada clara / bruma zen -->
    <path d="M160,95 Q240,75 320,105" stroke="#d5e3d9" stroke-width="12" stroke-linecap="round" fill="none" opacity="0.3" />
    <path d="M70,210 Q190,185 330,225" stroke="#1d3829" stroke-width="18" stroke-linecap="round" fill="none" opacity="0.7" />
  </g>

  <!-- Assinatura sutil do artista -->
  <text x="440" y="300" font-family="'Plus Jakarta Sans', sans-serif" font-size="9" fill="#d4af37" opacity="0.5" text-anchor="end" letter-spacing="1">C. ANDRADE</text>
</svg>

